<svg width="140" height="140" fill="none" xmlns="http://www.w3.org/2000/svg"><circle cx="70" cy="70" r="70" fill="#E51F34"/><path d="m56 84 27.067-28m0 0v24m0-24h-24.49" stroke="#fff" stroke-width="4.667"/><path d="M31.538 108.067c.803-.73 1.35-1.553 1.64-2.47a5.49 5.49 0 0 0 .144-2.74 4.96 4.96 0 0 0-1.21-2.378 6.045 6.045 0 0 0-1.425-1.177 5.735 5.735 0 0 0-1.564-.644 5.396 5.396 0 0 0-1.603-.119l1.667-1.515c.783.085 1.504.3 2.161.644.657.344 1.333.898 2.028 1.662a7.253 7.253 0 0 1 1.466 2.389c.3.869.43 1.757.386 2.666a7.12 7.12 0 0 1-.696 2.672c-.411.863-1.003 1.646-1.777 2.349-.774.704-1.61 1.219-2.508 1.547a6.901 6.901 0 0 1-2.71.426 6.627 6.627 0 0 1-2.617-.637 7.01 7.01 0 0 1-2.255-1.673c-.695-.763-1.182-1.489-1.462-2.176a5.999 5.999 0 0 1-.436-2.212l1.666-1.516a5.02 5.02 0 0 0-.019 1.594 5.41 5.41 0 0 0 .478 1.631c.24.524.586 1.034 1.037 1.53a4.952 4.952 0 0 0 2.253 1.43 5.49 5.49 0 0 0 2.741.116c.93-.193 1.801-.659 2.615-1.399ZM21.287 89.972l-1.02-2.473a6.802 6.802 0 0 1-.473-1.675c-.07-.522-.006-.983.191-1.384.197-.4.575-.715 1.133-.945a2.511 2.511 0 0 1 1.922-.032c.62.238 1.132.846 1.536 1.825l1.172 2.844-1.3.537-1.02-2.473c-.23-.558-.517-.918-.86-1.081-.347-.176-.689-.194-1.023-.056a1.031 1.031 0 0 0-.419.303c-.11.118-.194.268-.249.45-.06.17-.072.37-.035.602.02.224.089.478.206.763l1.02 2.473-.781.322Zm.372-.154-.874.36-.943-2.286a2.345 2.345 0 0 0-.32-.564 1.409 1.409 0 0 0-.451-.358 1.22 1.22 0 0 0-.487-.125 1.11 1.11 0 0 0-.51.08 1.031 1.031 0 0 0-.639.72c-.103.347-.063.744.12 1.19l.944 2.286-1.302.537-.942-2.287a4.478 4.478 0 0 1-.357-1.55 2.416 2.416 0 0 1 .3-1.384c.222-.41.611-.73 1.17-.96.483-.2.942-.23 1.376-.09.422.145.806.407 1.151.787.328.372.601.825.821 1.358l.943 2.286Zm-4.101 2.713-.613-1.487 8.55-3.525.614 1.487-8.551 3.525Zm3.955-18.877.136 1.765-5.074-3.038-.135-1.765 5.073 3.038Zm-.45-5.853.123 1.603-9.222.71-.123-1.604 9.222-.71Zm-5.02 1.333 1.404-.108.22 2.867a5.087 5.087 0 0 1-.148 1.746 2.544 2.544 0 0 1-.79 1.27c-.391.327-.914.515-1.57.565-.668.051-1.214-.054-1.637-.318a2.544 2.544 0 0 1-.975-1.135 5.087 5.087 0 0 1-.413-1.702l-.22-2.867 1.403-.108.22 2.867c.03.388.109.71.236.97.113.247.275.43.486.547.21.119.47.166.777.142.308-.023.556-.11.747-.259.19-.149.329-.355.416-.617.073-.274.095-.605.065-.993l-.22-2.867ZM18.04 54.92l-.977-.236c.145-.6.139-1.056-.02-1.37-.171-.318-.42-.516-.745-.595-.352-.085-.657-.021-.916.192-.271.21-.464.55-.577 1.019-.095.39-.096.735-.002 1.034.083.282.221.508.414.68.18.167.374.276.583.327l-.383 1.583a2.558 2.558 0 0 1-1.303-.771 3.061 3.061 0 0 1-.732-1.419c-.141-.558-.136-1.15.016-1.775a3.77 3.77 0 0 1 .715-1.502c.335-.416.717-.71 1.145-.882a2.029 2.029 0 0 1 1.31-.117c.652.158 1.122.582 1.41 1.272.29.678.312 1.53.062 2.56Zm4.729.98c-.256 1.055-.748 1.832-1.476 2.332-.724.486-1.536.676-2.434.569l.383-1.583a2.57 2.57 0 0 0 1.296-.307c.41-.218.698-.665.863-1.343.1-.417.127-.783.08-1.098-.046-.328-.16-.597-.343-.807a1.325 1.325 0 0 0-.706-.419 1.317 1.317 0 0 0-.862.06c-.26.103-.488.303-.684.6-.193.285-.344.655-.455 1.11l-.977-.236c.271-1.12.683-1.965 1.235-2.535.552-.57 1.25-.752 2.098-.547.586.142 1.055.428 1.406.857.34.414.564.916.67 1.507.091.588.06 1.201-.095 1.84Zm1.678-12.734c.274.169.553.239.839.21.274-.036.54-.148.797-.336.246-.195.464-.446.654-.755.28-.456.462-.903.543-1.342.08-.438.032-.845-.145-1.222-.17-.388-.5-.733-.992-1.036l1.025.253c.502.31.852.714 1.048 1.213.193.48.249 1.003.169 1.567a4.57 4.57 0 0 1-.644 1.658c-.302.491-.67.886-1.107 1.184a2.789 2.789 0 0 1-1.416.498c-.513.015-1.037-.143-1.574-.473-.559-.345-.948-.773-1.168-1.286-.22-.513-.277-1.084-.173-1.713.092-.636.35-1.296.77-1.98.31-.503.642-.889.997-1.158.35-.288.678-.488.983-.6.293-.118.516-.185.668-.202l.805.495c-.513.22-.956.49-1.327.813-.383.315-.73.724-1.039 1.226-.28.456-.453.877-.518 1.263-.057.374-.017.706.12.995.137.288.365.531.685.728Zm-3.715-2.288-1.456.025c-.034-.43-.005-.963.087-1.6.093-.635.357-1.307.792-2.014.373-.605.793-1.07 1.261-1.396.464-.344.95-.533 1.459-.566.515-.045 1.03.09 1.544.407l5.65 3.48-.844 1.369-5.65-3.48c-.4-.245-.802-.257-1.206-.034a2.5 2.5 0 0 0-1.015.958 3.8 3.8 0 0 0-.479 1.122 4.09 4.09 0 0 0-.153 1.015c-.008.295-.005.533.01.714Zm7.863-14.208 4.02-3.65 1.013 1.117-4.02 3.649-1.013-1.117Zm1.684-.987 1.191-1.081 5.947 6.55-1.191 1.082-5.947-6.55Zm10.614-8.538 1.445-.707 4.067 8.307-1.445.707-4.067-8.307Zm3.006 3.991-.619-1.264 2.583-1.264c.854-.419 1.674-.559 2.458-.42.79.12 1.404.626 1.84 1.517.289.59.395 1.142.319 1.657a2.57 2.57 0 0 1-.668 1.38c-.37.404-.843.748-1.42 1.03l-2.583 1.265-.62-1.264 2.583-1.265c.35-.17.615-.36.796-.568a1.33 1.33 0 0 0 .321-.717 1.558 1.558 0 0 0-.173-.81c-.206-.422-.498-.683-.875-.782-.377-.099-.83-.019-1.36.24L43.9 21.137Zm15.849-6.058c.09.637.303 1.182.639 1.636a3.3 3.3 0 0 0 1.281 1.016 3.172 3.172 0 0 0 1.672.19 4.24 4.24 0 0 0 1.343-.415c.415-.221.764-.48 1.047-.778.28-.31.467-.621.558-.932l.282 1.991c-.265.417-.682.774-1.249 1.07a5.633 5.633 0 0 1-1.77.556c-.889.127-1.72.035-2.496-.275a4.699 4.699 0 0 1-1.952-1.45c-.515-.671-.837-1.465-.967-2.38-.132-.93-.043-1.782.267-2.557a4.7 4.7 0 0 1 1.472-1.935c.658-.513 1.432-.832 2.321-.958a5.314 5.314 0 0 1 1.857.061c.626.115 1.124.335 1.495.661l.282 1.991c-.175-.286-.44-.533-.795-.74a3.723 3.723 0 0 0-1.22-.436 3.921 3.921 0 0 0-1.407-.044c-.597.084-1.115.3-1.553.646a3.098 3.098 0 0 0-.948 1.333c-.196.529-.249 1.112-.159 1.749Zm15.944 4.028-1.743-.305 4.2-4.164 1.743.306-4.2 4.163Zm5.783 1.013-1.584-.277 1.596-9.11 1.584.277-1.596 9.11Zm-.05-5.194-.242 1.387-2.833-.496a5.085 5.085 0 0 1-1.654-.576 2.544 2.544 0 0 1-1.036-1.08c-.219-.46-.271-1.013-.158-1.66.116-.66.353-1.163.713-1.508a2.54 2.54 0 0 1 1.341-.664 5.088 5.088 0 0 1 1.752.021l2.832.497-.243 1.386-2.832-.496c-.383-.067-.715-.071-.998-.012-.267.049-.484.16-.65.335-.167.175-.277.415-.33.718-.054.304-.032.566.066.788.097.22.262.406.494.556.248.138.563.241.946.308l2.833.496Zm21.774 10.976c-.427.482-.705.997-.834 1.545a3.298 3.298 0 0 0 .054 1.635c.174.531.486.997.937 1.397.371.33.766.582 1.184.756a4.08 4.08 0 0 0 1.271.295c.419.014.776-.046 1.072-.177l-1.335 1.503c-.49.067-1.031-.02-1.625-.26a5.638 5.638 0 0 1-1.568-.989c-.672-.596-1.14-1.29-1.405-2.082a4.691 4.691 0 0 1-.158-2.426c.179-.827.575-1.586 1.189-2.278.623-.702 1.331-1.185 2.122-1.45a4.699 4.699 0 0 1 2.428-.13c.817.17 1.561.553 2.233 1.15a5.3 5.3 0 0 1 1.154 1.455c.318.551.472 1.074.464 1.568l-1.336 1.503c.105-.32.121-.68.05-1.085a3.734 3.734 0 0 0-.456-1.212 3.923 3.923 0 0 0-.878-1.102 3.17 3.17 0 0 0-1.498-.766 3.094 3.094 0 0 0-1.629.14c-.53.193-1.009.53-1.436 1.01ZM119.493 49.5l1.449-.419 1.895 6.569-1.449.418-1.895-6.569Zm6.532 4.142.446 1.545-8.887 2.565-.446-1.546 8.887-2.564Zm-1.868-6.472.446 1.545-8.887 2.565-.446-1.546 8.887-2.564Zm-2.959 19.958a1.31 1.31 0 0 0-.837.216 1.728 1.728 0 0 0-.541.675 2.876 2.876 0 0 0-.215.974c-.029.536.025 1.015.163 1.44.137.423.374.758.709 1.005.335.26.79.406 1.366.438l-1.022.266c-.589-.033-1.088-.222-1.499-.566a3.015 3.015 0 0 1-.895-1.298 4.584 4.584 0 0 1-.225-1.765 3.867 3.867 0 0 1 .409-1.568c.24-.47.576-.84 1.007-1.112.444-.258.981-.37 1.61-.335.656.036 1.202.228 1.64.574.437.346.76.82.968 1.423.222.603.311 1.306.267 2.109-.033.589-.141 1.086-.324 1.492-.171.42-.364.752-.579.995-.201.245-.365.41-.49.497l-.944-.052c.346-.437.606-.886.779-1.347a4.88 4.88 0 0 0 .329-1.572c.029-.536-.02-.988-.147-1.358-.128-.356-.321-.628-.579-.817-.258-.189-.575-.293-.95-.314Zm4.357.24 1.268-.715c.235.362.463.844.685 1.447.222.603.31 1.32.264 2.15-.039.709-.186 1.318-.443 1.828-.243.523-.581.92-1.012 1.192-.432.285-.949.411-1.551.378l-6.626-.365.089-1.607 6.625.366c.469.025.828-.156 1.077-.545.263-.375.408-.817.436-1.325a3.825 3.825 0 0 0-.114-1.215 4.08 4.08 0 0 0-.35-.966 7.104 7.104 0 0 0-.348-.623Zm-12.554 22.629 7.345 1.483 2.051 1.855-10.104-1.673.708-1.665Zm3.165-3.899 6.231 7.237-3.039-1.073-5.278-6.395 2.086.231Zm-2.086-.231 8.243-.582 2.882 1.444-9.511.48-1.614-1.342Zm2.909-5.252 8.216 6.114-2.759-.19-6.165-4.259.708-1.665Zm-8.736 27.975-.789-11.287 1.607 1.666.789 11.286-1.607-1.665Zm5.32-3.266-5.613-5.331-.496-2.69 7.217 6.855-1.108 1.166Zm-3.713 4.931-7.217-6.854 1.108-1.166 5.613 5.331.496 2.689Z" fill="#fff"/></svg>